<?xml version="1.0" encoding="UTF-8"?>
<svg id="Layer_1" xmlns="http://www.w3.org/2000/svg" viewBox="0 0 400.69 205.73">
  <defs>
    <style>
      .cls-1 {
        fill: none;
        stroke: #231f20;
        stroke-miterlimit: 10;
        stroke-width: 8px;
      }
    </style>
  </defs>
  <path class="cls-1" d="M82.59,141.36h-24.69c-9.43,0-14.52-6.86-11.37-15.33L86.22,19.33c3.15-8.46,13.34-15.33,22.77-15.33h175.47c9.43,0,14.52,6.86,11.37,15.33l-39.69,106.71c-3.15,8.46-13.34,15.33-22.77,15.33h-102.68"/>
  <path class="cls-1" d="M350.79,177.94h27.96c2.77,0,5.48-.99,7.51-2.89,7.93-7.41,11.83-17.61,10-27.13-1.08-5.62-3.92-9.78-6.24-12.41-1-1.14-2.22-2.05-3.59-2.71-4.8-2.29-9.61-4.58-14.41-6.87-4.11-1.96-6.61-6.21-6.36-10.76.56-10-.82-28.28-15.38-42.55-12.1-11.86-29.13-16.88-45.53-13.78-3.91.74-7.16,3.45-8.52,7.18-11.8,32.29-23.61,64.58-35.41,96.87-2.67,7.3,2.74,15.03,10.51,15.03h13.18"/>
  <path class="cls-1" d="M139.78,177.94h97.03c4.7,0,8.9-2.94,10.51-7.35h0c2.67-7.3-2.74-15.03-10.51-15.03h-97.03"/>
  <path class="cls-1" d="M73.5,155.56H15.19c-6.18,0-11.19,5.01-11.19,11.19h0c0,6.18,5.01,11.19,11.19,11.19h58.31"/>
  <path class="cls-1" d="M365.85,117.95l-42.49-11.76c-6.25-2.42-8.99-9.76-5.85-15.68l2.49-4.7c2.49-4.7,7.95-6.99,13.06-5.49l28.16,8.32"/>
  <circle class="cls-1" cx="106.64" cy="166.75" r="34.98"/>
  <circle class="cls-1" cx="317.64" cy="166.75" r="34.98"/>
</svg>